<svg xmlns="http://www.w3.org/2000/svg" viewBox="0 0 900 250" width="900" height="250" role="img">
<title>the whole allocator</title>
<defs>
<marker id='arena-arr' markerWidth='10' markerHeight='10' refX='8' refY='3.2' orient='auto'><path d='M0,0 L10,3.2 L0,6.4 Z' fill='#2B2118'/></marker>
</defs>
<rect width="100%" height="100%" rx="22" fill="#FFF6DC" stroke="#E8D7A8" stroke-width="3"/>
<text x="28" y="38" font-size="22" font-family="Trebuchet MS, Segoe UI, sans-serif" font-weight="800" fill="#1B4B6B">the whole allocator</text>
<g transform="rotate(0.17 450 138)"><rect x="39" y="93" width="828" height="100" rx="16" fill="#E8C98A" opacity="0.45"/><rect x="36" y="88" width="828" height="100" rx="16" fill="#FFF1C2" stroke="#2B2118" stroke-width="2.6"/>
</g>
<g transform="rotate(-0.22 151 138)"><rect x="59" y="109" width="190" height="68" rx="16" fill="#E8C98A" opacity="0.45"/><rect x="56" y="104" width="190" height="68" rx="16" fill="#2EC4B6" stroke="#2B2118" stroke-width="2.6"/>
<text x="151" y="144" text-anchor="middle" font-size="18" font-family="Trebuchet MS, Segoe UI, sans-serif" font-weight="800" fill="#2B2118">weights</text>
</g>
<g transform="rotate(-0.11 366 138)"><rect x="269" y="109" width="200" height="68" rx="16" fill="#E8C98A" opacity="0.45"/><rect x="266" y="104" width="200" height="68" rx="16" fill="#7B6CF6" stroke="#2B2118" stroke-width="2.6"/>
<text x="366" y="144" text-anchor="middle" font-size="18" font-family="Trebuchet MS, Segoe UI, sans-serif" font-weight="800" fill="#2B2118">decode / ODE</text>
</g>
<g transform="rotate(-0.10 566 138)"><rect x="489" y="109" width="160" height="68" rx="16" fill="#E8C98A" opacity="0.45"/><rect x="486" y="104" width="160" height="68" rx="16" fill="#FF9F43" stroke="#2B2118" stroke-width="2.6"/>
<text x="566" y="144" text-anchor="middle" font-size="18" font-family="Trebuchet MS, Segoe UI, sans-serif" font-weight="800" fill="#2B2118">scratch</text>
</g>
<g transform="rotate(-0.08 751 138)"><rect x="669" y="109" width="170" height="68" rx="16" fill="#E8C98A" opacity="0.45"/><rect x="666" y="104" width="170" height="68" rx="16" fill="#FF8FAB" stroke="#2B2118" stroke-width="2.6"/>
<text x="751" y="144" text-anchor="middle" font-size="18" font-family="Trebuchet MS, Segoe UI, sans-serif" font-weight="800" fill="#2B2118">thread pool</text>
</g>
<path d="M 566 70 Q 569 85 566 104" fill="none" stroke="#FF6B6B" stroke-width="2.8" marker-end="url(#arena-arr)"/>
<text x="580" y="64" text-anchor="start" font-size="15" font-family="Trebuchet MS, Segoe UI, sans-serif" font-weight="800" fill="#1B4B6B">reset_to(mark)  rewind, reuse bytes</text>
<g transform="rotate(1.2 36 44)"><rect x="36" y="44" width="432" height="36" rx="9" fill="#FFD166" stroke="#2B2118" stroke-width="2.2"/><text x="252" y="68" text-anchor="middle" font-size="14" font-family="Trebuchet MS, Segoe UI, sans-serif" font-weight="800" fill="#2B2118">sized at load  ·  64-byte align  ·  fail closed</text></g>
<polygon points="850.0,40.0 852.0,45.3 857.6,45.5 853.2,49.0 854.7,54.5 850.0,51.4 845.3,54.5 846.8,49.0 842.4,45.5 848.0,45.3" fill="#FF6B6B" stroke="#2B2118" stroke-width="1.6"/>
</svg>