<svg xmlns="http://www.w3.org/2000/svg" viewBox="0 0 980 600" width="980" height="600" role="img">
<title>what ships on main</title>
<defs>
<marker id='status-arr' markerWidth='10' markerHeight='10' refX='8' refY='3.2' orient='auto'><path d='M0,0 L10,3.2 L0,6.4 Z' fill='#2B2118'/></marker>
</defs>
<rect width="100%" height="100%" rx="22" fill="#FFF6DC" stroke="#E8D7A8" stroke-width="3"/>
<text x="28" y="38" font-size="22" font-family="Trebuchet MS, Segoe UI, sans-serif" font-weight="800" fill="#1B4B6B">what ships on main</text>
<text x="36" y="58" text-anchor="start" font-size="16" font-family="Trebuchet MS, Segoe UI, sans-serif" font-weight="800" fill="#1B4B6B">Backends</text>
<g transform="rotate(0.11 151 108)"><rect x="39" y="85" width="230" height="56" rx="16" fill="#E8C98A" opacity="0.45"/><rect x="36" y="80" width="230" height="56" rx="16" fill="#6BCB77" stroke="#2B2118" stroke-width="2.6"/>
</g>
<circle cx="54" cy="108" r="11" fill="#6BCB77" stroke="#2B2118" stroke-width="2"/><text x="54" y="113" text-anchor="middle" font-size="13" font-family="Trebuchet MS, Segoe UI, sans-serif" font-weight="800" fill="#2B2118">✓</text>
<text x="161" y="112" text-anchor="middle" font-size="13" font-family="Trebuchet MS, Segoe UI, sans-serif" font-weight="800" fill="#1B4B6B">CPU  AVX2 / NEON</text>
<g transform="rotate(0.15 388 108)"><rect x="281" y="85" width="220" height="56" rx="16" fill="#E8C98A" opacity="0.45"/><rect x="278" y="80" width="220" height="56" rx="16" fill="#6BCB77" stroke="#2B2118" stroke-width="2.6"/>
</g>
<circle cx="296" cy="108" r="11" fill="#6BCB77" stroke="#2B2118" stroke-width="2"/><text x="296" y="113" text-anchor="middle" font-size="13" font-family="Trebuchet MS, Segoe UI, sans-serif" font-weight="800" fill="#2B2118">✓</text>
<text x="398" y="112" text-anchor="middle" font-size="13" font-family="Trebuchet MS, Segoe UI, sans-serif" font-weight="800" fill="#1B4B6B">CUDA flow+DP</text>
<g transform="rotate(0.24 580 108)"><rect x="513" y="85" width="140" height="56" rx="16" fill="#E8C98A" opacity="0.45"/><rect x="510" y="80" width="140" height="56" rx="16" fill="#FFF1C2" stroke="#2B2118" stroke-width="2.6"/>
</g>
<circle cx="528" cy="108" r="11" fill="#E8D7A8" stroke="#2B2118" stroke-width="2"/><text x="528" y="113" text-anchor="middle" font-size="13" font-family="Trebuchet MS, Segoe UI, sans-serif" font-weight="800" fill="#2B2118">○</text>
<text x="590" y="112" text-anchor="middle" font-size="13" font-family="Trebuchet MS, Segoe UI, sans-serif" font-weight="800" fill="#1B4B6B">Vulkan</text>
<g transform="rotate(0.19 792 108)"><rect x="665" y="85" width="260" height="56" rx="16" fill="#E8C98A" opacity="0.45"/><rect x="662" y="80" width="260" height="56" rx="16" fill="#FFF1C2" stroke="#2B2118" stroke-width="2.6"/>
</g>
<circle cx="680" cy="108" r="11" fill="#E8D7A8" stroke="#2B2118" stroke-width="2"/><text x="680" y="113" text-anchor="middle" font-size="13" font-family="Trebuchet MS, Segoe UI, sans-serif" font-weight="800" fill="#2B2118">○</text>
<text x="802" y="112" text-anchor="middle" font-size="13" font-family="Trebuchet MS, Segoe UI, sans-serif" font-weight="800" fill="#1B4B6B">Tenstorrent / Metal</text>
<text x="36" y="150" text-anchor="start" font-size="16" font-family="Trebuchet MS, Segoe UI, sans-serif" font-weight="800" fill="#1B4B6B">Backbones</text>
<g transform="rotate(0.25 136 200)"><rect x="39" y="177" width="200" height="56" rx="16" fill="#E8C98A" opacity="0.45"/><rect x="36" y="172" width="200" height="56" rx="16" fill="#6BCB77" stroke="#2B2118" stroke-width="2.6"/>
</g>
<circle cx="54" cy="200" r="11" fill="#6BCB77" stroke="#2B2118" stroke-width="2"/><text x="54" y="205" text-anchor="middle" font-size="13" font-family="Trebuchet MS, Segoe UI, sans-serif" font-weight="800" fill="#2B2118">✓</text>
<text x="146" y="204" text-anchor="middle" font-size="13" font-family="Trebuchet MS, Segoe UI, sans-serif" font-weight="800" fill="#1B4B6B">Mamba</text>
<g transform="rotate(0.06 368 200)"><rect x="251" y="177" width="240" height="56" rx="16" fill="#E8C98A" opacity="0.45"/><rect x="248" y="172" width="240" height="56" rx="16" fill="#6BCB77" stroke="#2B2118" stroke-width="2.6"/>
</g>
<circle cx="266" cy="200" r="11" fill="#6BCB77" stroke="#2B2118" stroke-width="2"/><text x="266" y="205" text-anchor="middle" font-size="13" font-family="Trebuchet MS, Segoe UI, sans-serif" font-weight="800" fill="#2B2118">✓</text>
<text x="378" y="204" text-anchor="middle" font-size="13" font-family="Trebuchet MS, Segoe UI, sans-serif" font-weight="800" fill="#1B4B6B">Transformer</text>
<text x="36" y="242" text-anchor="start" font-size="16" font-family="Trebuchet MS, Segoe UI, sans-serif" font-weight="800" fill="#1B4B6B">Heads</text>
<g transform="rotate(-0.05 141 292)"><rect x="39" y="269" width="210" height="56" rx="16" fill="#E8C98A" opacity="0.45"/><rect x="36" y="264" width="210" height="56" rx="16" fill="#7B6CF6" stroke="#2B2118" stroke-width="2.6"/>
</g>
<circle cx="54" cy="292" r="11" fill="#6BCB77" stroke="#2B2118" stroke-width="2"/><text x="54" y="297" text-anchor="middle" font-size="13" font-family="Trebuchet MS, Segoe UI, sans-serif" font-weight="800" fill="#2B2118">✓</text>
<text x="151" y="296" text-anchor="middle" font-size="13" font-family="Trebuchet MS, Segoe UI, sans-serif" font-weight="800" fill="#1B4B6B">flow matching</text>
<g transform="rotate(-0.20 363 292)"><rect x="261" y="269" width="210" height="56" rx="16" fill="#E8C98A" opacity="0.45"/><rect x="258" y="264" width="210" height="56" rx="16" fill="#FF9F43" stroke="#2B2118" stroke-width="2.6"/>
</g>
<circle cx="276" cy="292" r="11" fill="#6BCB77" stroke="#2B2118" stroke-width="2"/><text x="276" y="297" text-anchor="middle" font-size="13" font-family="Trebuchet MS, Segoe UI, sans-serif" font-weight="800" fill="#2B2118">✓</text>
<text x="373" y="296" text-anchor="middle" font-size="13" font-family="Trebuchet MS, Segoe UI, sans-serif" font-weight="800" fill="#1B4B6B">Diffusion Policy</text>
<g transform="rotate(-0.03 595 292)"><rect x="483" y="269" width="230" height="56" rx="16" fill="#E8C98A" opacity="0.45"/><rect x="480" y="264" width="230" height="56" rx="16" fill="#FFD166" stroke="#2B2118" stroke-width="2.6"/>
</g>
<circle cx="498" cy="292" r="11" fill="#FFD166" stroke="#2B2118" stroke-width="2"/><text x="498" y="297" text-anchor="middle" font-size="13" font-family="Trebuchet MS, Segoe UI, sans-serif" font-weight="800" fill="#2B2118">◐</text>
<text x="605" y="296" text-anchor="middle" font-size="13" font-family="Trebuchet MS, Segoe UI, sans-serif" font-weight="800" fill="#1B4B6B">SmolVLA expert</text>
<text x="36" y="334" text-anchor="start" font-size="16" font-family="Trebuchet MS, Segoe UI, sans-serif" font-weight="800" fill="#1B4B6B">Models</text>
<g transform="rotate(0.14 116 384)"><rect x="39" y="361" width="160" height="56" rx="16" fill="#E8C98A" opacity="0.45"/><rect x="36" y="356" width="160" height="56" rx="16" fill="#6BCB77" stroke="#2B2118" stroke-width="2.6"/>
</g>
<circle cx="54" cy="384" r="11" fill="#6BCB77" stroke="#2B2118" stroke-width="2"/><text x="54" y="389" text-anchor="middle" font-size="13" font-family="Trebuchet MS, Segoe UI, sans-serif" font-weight="800" fill="#2B2118">✓</text>
<text x="126" y="388" text-anchor="middle" font-size="13" font-family="Trebuchet MS, Segoe UI, sans-serif" font-weight="800" fill="#1B4B6B">mamba_flow</text>
<g transform="rotate(0.02 298 384)"><rect x="211" y="361" width="180" height="56" rx="16" fill="#E8C98A" opacity="0.45"/><rect x="208" y="356" width="180" height="56" rx="16" fill="#6BCB77" stroke="#2B2118" stroke-width="2.6"/>
</g>
<circle cx="226" cy="384" r="11" fill="#6BCB77" stroke="#2B2118" stroke-width="2"/><text x="226" y="389" text-anchor="middle" font-size="13" font-family="Trebuchet MS, Segoe UI, sans-serif" font-weight="800" fill="#2B2118">✓</text>
<text x="308" y="388" text-anchor="middle" font-size="13" font-family="Trebuchet MS, Segoe UI, sans-serif" font-weight="800" fill="#1B4B6B">diffusion_pusht</text>
<g transform="rotate(-0.00 470 384)"><rect x="403" y="361" width="140" height="56" rx="16" fill="#E8C98A" opacity="0.45"/><rect x="400" y="356" width="140" height="56" rx="16" fill="#FFF1C2" stroke="#2B2118" stroke-width="2.6"/>
</g>
<circle cx="418" cy="384" r="11" fill="#E8D7A8" stroke="#2B2118" stroke-width="2"/><text x="418" y="389" text-anchor="middle" font-size="13" font-family="Trebuchet MS, Segoe UI, sans-serif" font-weight="800" fill="#2B2118">○</text>
<text x="480" y="388" text-anchor="middle" font-size="13" font-family="Trebuchet MS, Segoe UI, sans-serif" font-weight="800" fill="#1B4B6B">π0</text>
<g transform="rotate(-0.11 622 384)"><rect x="555" y="361" width="140" height="56" rx="16" fill="#E8C98A" opacity="0.45"/><rect x="552" y="356" width="140" height="56" rx="16" fill="#FFF1C2" stroke="#2B2118" stroke-width="2.6"/>
</g>
<circle cx="570" cy="384" r="11" fill="#E8D7A8" stroke="#2B2118" stroke-width="2"/><text x="570" y="389" text-anchor="middle" font-size="13" font-family="Trebuchet MS, Segoe UI, sans-serif" font-weight="800" fill="#2B2118">○</text>
<text x="632" y="388" text-anchor="middle" font-size="13" font-family="Trebuchet MS, Segoe UI, sans-serif" font-weight="800" fill="#1B4B6B">DiT</text>
<g transform="rotate(-0.19 804 384)"><rect x="707" y="361" width="200" height="56" rx="16" fill="#E8C98A" opacity="0.45"/><rect x="704" y="356" width="200" height="56" rx="16" fill="#FFF1C2" stroke="#2B2118" stroke-width="2.6"/>
</g>
<circle cx="722" cy="384" r="11" fill="#E8D7A8" stroke="#2B2118" stroke-width="2"/><text x="722" y="389" text-anchor="middle" font-size="13" font-family="Trebuchet MS, Segoe UI, sans-serif" font-weight="800" fill="#2B2118">○</text>
<text x="814" y="388" text-anchor="middle" font-size="13" font-family="Trebuchet MS, Segoe UI, sans-serif" font-weight="800" fill="#1B4B6B">native VLM</text>
<text x="36" y="426" text-anchor="start" font-size="16" font-family="Trebuchet MS, Segoe UI, sans-serif" font-weight="800" fill="#1B4B6B">Precisions</text>
<g transform="rotate(0.11 111 476)"><rect x="39" y="453" width="150" height="56" rx="16" fill="#E8C98A" opacity="0.45"/><rect x="36" y="448" width="150" height="56" rx="16" fill="#FFD166" stroke="#2B2118" stroke-width="2.6"/>
</g>
<circle cx="54" cy="476" r="11" fill="#6BCB77" stroke="#2B2118" stroke-width="2"/><text x="54" y="481" text-anchor="middle" font-size="13" font-family="Trebuchet MS, Segoe UI, sans-serif" font-weight="800" fill="#2B2118">✓</text>
<text x="121" y="480" text-anchor="middle" font-size="13" font-family="Trebuchet MS, Segoe UI, sans-serif" font-weight="800" fill="#1B4B6B">FP32</text>
<g transform="rotate(-0.21 273 476)"><rect x="201" y="453" width="150" height="56" rx="16" fill="#E8C98A" opacity="0.45"/><rect x="198" y="448" width="150" height="56" rx="16" fill="#FFD166" stroke="#2B2118" stroke-width="2.6"/>
</g>
<circle cx="216" cy="476" r="11" fill="#6BCB77" stroke="#2B2118" stroke-width="2"/><text x="216" y="481" text-anchor="middle" font-size="13" font-family="Trebuchet MS, Segoe UI, sans-serif" font-weight="800" fill="#2B2118">✓</text>
<text x="283" y="480" text-anchor="middle" font-size="13" font-family="Trebuchet MS, Segoe UI, sans-serif" font-weight="800" fill="#1B4B6B">BF16</text>
<g transform="rotate(-0.18 435 476)"><rect x="363" y="453" width="150" height="56" rx="16" fill="#E8C98A" opacity="0.45"/><rect x="360" y="448" width="150" height="56" rx="16" fill="#FFF1C2" stroke="#2B2118" stroke-width="2.6"/>
</g>
<circle cx="378" cy="476" r="11" fill="#E8D7A8" stroke="#2B2118" stroke-width="2"/><text x="378" y="481" text-anchor="middle" font-size="13" font-family="Trebuchet MS, Segoe UI, sans-serif" font-weight="800" fill="#2B2118">○</text>
<text x="445" y="480" text-anchor="middle" font-size="13" font-family="Trebuchet MS, Segoe UI, sans-serif" font-weight="800" fill="#1B4B6B">INT8</text>
<text x="36" y="548" text-anchor="start" font-size="14" font-family="Trebuchet MS, Segoe UI, sans-serif" font-weight="800" fill="#1B4B6B">solvers on the heads:  Euler / Heun / RK4   ·   DDIM / DDPM</text>
</svg>